<svg width="22" height="22" viewBox="0 0 22 22" fill="none" xmlns="http://www.w3.org/2000/svg">
<path d="M18.1176 9.05865C18.1176 14.8822 11 20.7057 11 20.7057C11 20.7057 3.88232 14.8822 3.88232 9.05865C3.88232 6.99932 4.63222 5.02434 5.96704 3.56818C7.30185 2.11201 9.11225 1.29395 11 1.29395C12.8877 1.29395 14.6981 2.11201 16.0329 3.56818C17.3677 5.02434 18.1176 6.99932 18.1176 9.05865Z" fill="#122B49" stroke="#122B49" stroke-width="2" stroke-linecap="round" stroke-linejoin="round"/>
<path d="M11 10.3531C12.0721 10.3531 12.9412 9.48396 12.9412 8.41188C12.9412 7.3398 12.0721 6.4707 11 6.4707C9.92793 6.4707 9.05884 7.3398 9.05884 8.41188C9.05884 9.48396 9.92793 10.3531 11 10.3531Z" fill="white" stroke="white" stroke-width="2" stroke-linecap="round" stroke-linejoin="round"/>
</svg>
