<svg width="20" height="20" viewBox="0 0 20 20" fill="none" xmlns="http://www.w3.org/2000/svg">
<path d="M1.66675 16.6673V10.0007C1.66675 9.55862 1.84234 9.1347 2.1549 8.82214C2.46746 8.50958 2.89139 8.33398 3.33341 8.33398H16.6667C17.1088 8.33398 17.5327 8.50958 17.8453 8.82214C18.1578 9.1347 18.3334 9.55862 18.3334 10.0007V16.6673" stroke="#122B49" stroke-width="2" stroke-linecap="round" stroke-linejoin="round"/>
<path d="M3.33325 8.33398V5.00065C3.33325 4.55862 3.50885 4.1347 3.82141 3.82214C4.13397 3.50958 4.55789 3.33398 4.99992 3.33398H14.9999C15.4419 3.33398 15.8659 3.50958 16.1784 3.82214C16.491 4.1347 16.6666 4.55862 16.6666 5.00065V8.33398" stroke="#122B49" stroke-width="2" stroke-linecap="round" stroke-linejoin="round"/>
<path d="M10 3.33398V8.33398" stroke="#122B49" stroke-width="2" stroke-linecap="round" stroke-linejoin="round"/>
<path d="M1.66675 15H18.3334" stroke="#122B49" stroke-width="2" stroke-linecap="round" stroke-linejoin="round"/>
</svg>
