<svg width="52" height="52" viewBox="0 0 52 52" fill="none" xmlns="http://www.w3.org/2000/svg">
<g filter="url(#filter0_d_5_8628)">
<circle cx="25.7222" cy="22.2779" r="21.25" fill="white" stroke="#F6EFE6" stroke-width="0.944444"/>
<path d="M32.6929 24.3286C34.1588 22.8923 35.6443 21.1706 35.6443 18.9177C35.6443 17.4827 35.0742 16.1064 34.0595 15.0916C33.0448 14.0769 31.6685 13.5068 30.2334 13.5068C28.5019 13.5068 27.282 14.5285 25.8063 16.0042C24.3307 14.5285 23.1107 13.5068 21.3793 13.5068C19.9442 13.5068 18.5679 14.0769 17.5532 15.0916C16.5385 16.1064 15.9684 17.4827 15.9684 18.9177C15.9684 21.1804 17.4441 22.9021 18.9198 24.3286L25.8063 31.2152L32.6929 24.3286Z" stroke="#122B49" stroke-width="2.64444" stroke-linecap="round" stroke-linejoin="round"/>
</g>
<defs>
<filter id="filter0_d_5_8628" x="0" y="0.555664" width="51.4445" height="51.4443" filterUnits="userSpaceOnUse" color-interpolation-filters="sRGB">
<feFlood flood-opacity="0" result="BackgroundImageFix"/>
<feColorMatrix in="SourceAlpha" type="matrix" values="0 0 0 0 0 0 0 0 0 0 0 0 0 0 0 0 0 0 127 0" result="hardAlpha"/>
<feOffset dy="4"/>
<feGaussianBlur stdDeviation="2"/>
<feComposite in2="hardAlpha" operator="out"/>
<feColorMatrix type="matrix" values="0 0 0 0 0.324948 0 0 0 0 0.249335 0 0 0 0 0.16112 0 0 0 0.21 0"/>
<feBlend mode="normal" in2="BackgroundImageFix" result="effect1_dropShadow_5_8628"/>
<feBlend mode="normal" in="SourceGraphic" in2="effect1_dropShadow_5_8628" result="shape"/>
</filter>
</defs>
</svg>
